<?xml version="1.0" encoding="utf-8"?>
<!-- Generator: Adobe Illustrator 24.2.0, SVG Export Plug-In . SVG Version: 6.00 Build 0)  -->
<svg version="1.1" id="Layer_1" xmlns="http://www.w3.org/2000/svg" xmlns:xlink="http://www.w3.org/1999/xlink" x="0px" y="0px"
	 viewBox="0 0 1000 1000" style="enable-background:new 0 0 1000 1000;" xml:space="preserve">
<style type="text/css">
	.st0{fill:#F1E04B;stroke:#272727;stroke-width:2.791;stroke-miterlimit:2.613;}
	.st1{fill:none;stroke:#B3475D;stroke-width:0.947;stroke-miterlimit:2.613;}
	.st2{fill:#272727;}
</style>
<g>
	<path class="st0" d="M366.8,246.5l-83.1-7.2v1.4L130.5,375.1l-11.5,182l126,154.5l47.3,4.3l549.9,44.8l38.7-472.3L366.8,246.5z
		 M172.1,493.5c-12.9,0-22.9-10.1-22.9-21.7c0-13,10-23.1,22.9-23.1c11.5,0,21.5,10.1,21.5,23.1
		C193.5,483.4,183.5,493.5,172.1,493.5z"/>
	<path class="st2" d="M651.8,411.2l-14.3-2.9c-5.7-1.4-14.3-2.9-12.9-8.7c0-5.8,8.6-7.2,14.3-5.8c14.3,1.4,27.2,7.2,37.2,13
		l21.5-34.7c-17.2-8.7-35.8-14.4-57.3-15.9c-38.7-4.3-80.2,11.6-83.1,44.8c-1.4,21.7,18.6,36.1,44.4,41.9l12.9,2.9
		c7.2,1.4,15.7,2.9,14.3,8.7c0,7.2-11.5,7.2-17.2,7.2c-15.8-1.4-28.6-8.7-40.1-15.9l-2.9-2.9l-24.4,39c20,8.7,45.8,15.9,68.7,17.3
		c40.1,4.3,80.2-10.1,83.1-43.3C699.1,432.8,679,418.4,651.8,411.2z M544.4,388.1l2.9-37.5l-121.7-10.1l-11.5,140.1l124.6,11.6
		l2.9-39l-58.7-4.3l1.4-14.4l51.6,4.3l2.9-36.1l-51.6-4.3l1.4-14.4L544.4,388.1z M378.3,405.4V404c17.2-2.9,25.8-14.4,27.2-26
		c2.9-33.2-32.9-41.9-68.7-44.8l-75.9-7.2l-11.5,141.5l88.8,7.2c32.9,2.9,67.3-4.3,70.2-33.2C409.8,424.2,398.3,412.6,378.3,405.4z
		 M318.1,365l5.7,1.4c8.6,0,21.5,0,20,11.6c0,8.7-11.5,8.7-21.5,8.7l-5.7-1.4L318.1,365z M319.6,440.1l-7.2-1.4l2.9-23.1h5.7
		c11.5,1.4,27.2,2.9,27.2,14.4C346.8,441.5,331,440.1,319.6,440.1z"/>
	<path class="st2" d="M610.3,519.5l-65.9-5.8l-7.2,79.4c0,10.1-1.4,20.2-20,18.8c-17.2-1.4-17.2-11.6-15.8-21.7l5.7-79.4l-65.9-5.8
		l-7.2,83.8c-2.9,41.9,28.6,63.5,80.2,66.4c50.1,4.3,85.9-11.6,88.8-52L610.3,519.5L610.3,519.5L610.3,519.5z M395.5,571.5v-1.4
		c15.8-2.9,24.3-14.4,25.8-27.4c2.9-31.8-32.9-41.9-67.3-44.8l-77.3-5.8l-11.5,141.5l90.2,7.2c31.5,2.9,67.3-4.3,68.7-33.2
		C425.5,590.3,414.1,577.3,395.5,571.5z M335.3,531.1h4.3c10,1.4,21.5,1.4,21.5,11.6c-1.4,10.1-11.5,10.1-21.5,8.7h-5.7L335.3,531.1
		z M364,596c-1.4,11.5-17.2,10.1-27.2,8.7h-7.2l1.4-23.1h5.7C348.2,583,365.4,583,364,596z M700.5,362.1l-4.3,46.2l37.2,1.4
		l-8.6,96.8l65.9,5.8l8.6-96.8l35.8,4.3l4.3-46.2L700.5,362.1z"/>
	<path class="st2" d="M684.7,525.3l17.2,39h2.9c1.4-4.3,4.3-8.7,7.2-13l14.3-21.7l74.5,5.8L732,610.5l-5.7,60.7l-64.5-5.8l5.7-60.7
		l-57.3-85.2L684.7,525.3L684.7,525.3z"/>
</g>
</svg>
